<mxfile host="app.diagrams.net" agent="Mozilla/5.0 (Windows NT 10.0; Win64; x64) AppleWebKit/537.36 (KHTML, like Gecko) Chrome/137.0.0.0 Safari/537.36" version="27.1.6">
  <diagram name="Page-1" id="Ajozb5T_COAm22OZuGV9">
    <mxGraphModel dx="1737" dy="878" grid="1" gridSize="10" guides="1" tooltips="1" connect="1" arrows="1" fold="1" page="1" pageScale="1" pageWidth="1169" pageHeight="827" math="0" shadow="0">
      <root>
        <mxCell id="0" />
        <mxCell id="1" parent="0" />
        <mxCell id="yor_pRHSaEL866LrV0Xc-28" value="&lt;span style=&quot;color: rgb(8, 27, 58); font-family: SegoeuiPc, &amp;quot;Segoe UI&amp;quot;, &amp;quot;San Francisco&amp;quot;, &amp;quot;Helvetica Neue&amp;quot;, Helvetica, &amp;quot;Lucida Grande&amp;quot;, Roboto, Ubuntu, Tahoma, &amp;quot;Microsoft Sans Serif&amp;quot;, Arial, sans-serif; font-size: 15px; letter-spacing: 0.2px; text-align: start; white-space: pre-wrap; background-color: rgb(255, 255, 255);&quot;&gt;Manager&lt;/span&gt;" style="shape=umlActor;verticalLabelPosition=bottom;verticalAlign=top;html=1;outlineConnect=0;" vertex="1" parent="1">
          <mxGeometry x="1120" y="370" width="30" height="60" as="geometry" />
        </mxCell>
        <mxCell id="yor_pRHSaEL866LrV0Xc-53" value="" style="rounded=0;whiteSpace=wrap;html=1;" vertex="1" parent="1">
          <mxGeometry x="360" y="27" width="680" height="773" as="geometry" />
        </mxCell>
        <mxCell id="yor_pRHSaEL866LrV0Xc-54" value="Xác nhận Tham gia Kiểm tra" style="ellipse;whiteSpace=wrap;html=1;" vertex="1" parent="1">
          <mxGeometry x="485" y="160" width="130" height="60" as="geometry" />
        </mxCell>
        <mxCell id="yor_pRHSaEL866LrV0Xc-55" value="Xem Kết quả Kiểm tra" style="ellipse;whiteSpace=wrap;html=1;" vertex="1" parent="1">
          <mxGeometry x="480" y="304" width="140" height="66" as="geometry" />
        </mxCell>
        <mxCell id="yor_pRHSaEL866LrV0Xc-56" value="Nhận Lịch Hẹn Tư vấn" style="ellipse;whiteSpace=wrap;html=1;" vertex="1" parent="1">
          <mxGeometry x="470" y="490" width="150" height="60" as="geometry" />
        </mxCell>
        <mxCell id="yor_pRHSaEL866LrV0Xc-57" value="Parent&amp;nbsp;" style="shape=umlActor;verticalLabelPosition=bottom;verticalAlign=top;html=1;outlineConnect=0;" vertex="1" parent="1">
          <mxGeometry x="250" y="340" width="30" height="60" as="geometry" />
        </mxCell>
        <mxCell id="yor_pRHSaEL866LrV0Xc-58" value="Lên kế hoạch Kiểm tra Định kỳ" style="ellipse;whiteSpace=wrap;html=1;" vertex="1" parent="1">
          <mxGeometry x="745" y="100" width="190" height="60" as="geometry" />
        </mxCell>
        <mxCell id="yor_pRHSaEL866LrV0Xc-61" value="Ghi Nhận Kết quả Kiểm tra" style="ellipse;whiteSpace=wrap;html=1;" vertex="1" parent="1">
          <mxGeometry x="705" y="210" width="190" height="50" as="geometry" />
        </mxCell>
        <mxCell id="yor_pRHSaEL866LrV0Xc-62" value="Chuẩn bị Danh sách Học sinh Kiểm tra" style="ellipse;whiteSpace=wrap;html=1;" vertex="1" parent="1">
          <mxGeometry x="710" y="311.5" width="160" height="51" as="geometry" />
        </mxCell>
        <mxCell id="yor_pRHSaEL866LrV0Xc-63" value="Thực hiện Kiểm tra Y tế" style="ellipse;whiteSpace=wrap;html=1;" vertex="1" parent="1">
          <mxGeometry x="710" y="414" width="180" height="50" as="geometry" />
        </mxCell>
        <mxCell id="yor_pRHSaEL866LrV0Xc-64" value="Gửi Kết quả Kiểm tra cho Phụ huynh" style="ellipse;whiteSpace=wrap;html=1;" vertex="1" parent="1">
          <mxGeometry x="680" y="500" width="190" height="60" as="geometry" />
        </mxCell>
        <mxCell id="yor_pRHSaEL866LrV0Xc-65" value="&lt;font style=&quot;vertical-align: inherit;&quot;&gt;&lt;font style=&quot;vertical-align: inherit;&quot;&gt;Gửi thông báo Kiểm tra định kỳ&lt;/font&gt;&lt;/font&gt;" style="ellipse;whiteSpace=wrap;html=1;" vertex="1" parent="1">
          <mxGeometry x="810" y="700" width="110" height="60" as="geometry" />
        </mxCell>
        <mxCell id="yor_pRHSaEL866LrV0Xc-66" value="Lập Lịch Hẹn Tư vấn" style="ellipse;whiteSpace=wrap;html=1;" vertex="1" parent="1">
          <mxGeometry x="725" y="600" width="150" height="60" as="geometry" />
        </mxCell>
        <mxCell id="yor_pRHSaEL866LrV0Xc-68" value="" style="endArrow=none;html=1;rounded=0;entryX=0;entryY=1;entryDx=0;entryDy=0;" edge="1" parent="1" target="yor_pRHSaEL866LrV0Xc-54">
          <mxGeometry width="50" height="50" relative="1" as="geometry">
            <mxPoint x="320" y="370" as="sourcePoint" />
            <mxPoint x="720" y="390" as="targetPoint" />
          </mxGeometry>
        </mxCell>
        <mxCell id="yor_pRHSaEL866LrV0Xc-69" value="" style="endArrow=none;html=1;rounded=0;entryX=0;entryY=0.5;entryDx=0;entryDy=0;" edge="1" parent="1" target="yor_pRHSaEL866LrV0Xc-55">
          <mxGeometry width="50" height="50" relative="1" as="geometry">
            <mxPoint x="320" y="370" as="sourcePoint" />
            <mxPoint x="720" y="390" as="targetPoint" />
          </mxGeometry>
        </mxCell>
        <mxCell id="yor_pRHSaEL866LrV0Xc-70" value="" style="endArrow=none;html=1;rounded=0;entryX=0;entryY=0;entryDx=0;entryDy=0;" edge="1" parent="1" target="yor_pRHSaEL866LrV0Xc-56">
          <mxGeometry width="50" height="50" relative="1" as="geometry">
            <mxPoint x="320" y="370" as="sourcePoint" />
            <mxPoint x="720" y="390" as="targetPoint" />
          </mxGeometry>
        </mxCell>
        <mxCell id="yor_pRHSaEL866LrV0Xc-71" value="" style="endArrow=none;html=1;rounded=0;entryX=1;entryY=1;entryDx=0;entryDy=0;" edge="1" parent="1" target="yor_pRHSaEL866LrV0Xc-58">
          <mxGeometry width="50" height="50" relative="1" as="geometry">
            <mxPoint x="1100" y="400" as="sourcePoint" />
            <mxPoint x="720" y="390" as="targetPoint" />
          </mxGeometry>
        </mxCell>
        <mxCell id="yor_pRHSaEL866LrV0Xc-72" value="" style="endArrow=none;html=1;rounded=0;exitX=0.944;exitY=0.753;exitDx=0;exitDy=0;exitPerimeter=0;" edge="1" parent="1" source="yor_pRHSaEL866LrV0Xc-61">
          <mxGeometry width="50" height="50" relative="1" as="geometry">
            <mxPoint x="670" y="440" as="sourcePoint" />
            <mxPoint x="1100" y="400" as="targetPoint" />
          </mxGeometry>
        </mxCell>
        <mxCell id="yor_pRHSaEL866LrV0Xc-73" value="" style="endArrow=none;html=1;rounded=0;exitX=1;exitY=0.5;exitDx=0;exitDy=0;" edge="1" parent="1" source="yor_pRHSaEL866LrV0Xc-62">
          <mxGeometry width="50" height="50" relative="1" as="geometry">
            <mxPoint x="670" y="440" as="sourcePoint" />
            <mxPoint x="1100" y="400" as="targetPoint" />
          </mxGeometry>
        </mxCell>
        <mxCell id="yor_pRHSaEL866LrV0Xc-74" value="" style="endArrow=none;html=1;rounded=0;exitX=1;exitY=0.5;exitDx=0;exitDy=0;" edge="1" parent="1" source="yor_pRHSaEL866LrV0Xc-63">
          <mxGeometry width="50" height="50" relative="1" as="geometry">
            <mxPoint x="670" y="440" as="sourcePoint" />
            <mxPoint x="1100" y="400" as="targetPoint" />
          </mxGeometry>
        </mxCell>
        <mxCell id="yor_pRHSaEL866LrV0Xc-75" value="" style="endArrow=none;html=1;rounded=0;entryX=1;entryY=0.5;entryDx=0;entryDy=0;" edge="1" parent="1" target="yor_pRHSaEL866LrV0Xc-64">
          <mxGeometry width="50" height="50" relative="1" as="geometry">
            <mxPoint x="1100" y="400" as="sourcePoint" />
            <mxPoint x="720" y="390" as="targetPoint" />
          </mxGeometry>
        </mxCell>
        <mxCell id="yor_pRHSaEL866LrV0Xc-76" value="" style="endArrow=none;html=1;rounded=0;entryX=1;entryY=0;entryDx=0;entryDy=0;" edge="1" parent="1" target="yor_pRHSaEL866LrV0Xc-65">
          <mxGeometry width="50" height="50" relative="1" as="geometry">
            <mxPoint x="1100" y="400" as="sourcePoint" />
            <mxPoint x="720" y="390" as="targetPoint" />
          </mxGeometry>
        </mxCell>
        <mxCell id="yor_pRHSaEL866LrV0Xc-77" value="" style="endArrow=none;html=1;rounded=0;entryX=1;entryY=0.5;entryDx=0;entryDy=0;" edge="1" parent="1" target="yor_pRHSaEL866LrV0Xc-66">
          <mxGeometry width="50" height="50" relative="1" as="geometry">
            <mxPoint x="1100" y="400" as="sourcePoint" />
            <mxPoint x="720" y="390" as="targetPoint" />
          </mxGeometry>
        </mxCell>
        <mxCell id="yor_pRHSaEL866LrV0Xc-78" value="&lt;span style=&quot;color: rgb(8, 27, 58); font-family: SegoeuiPc, &amp;quot;Segoe UI&amp;quot;, &amp;quot;San Francisco&amp;quot;, &amp;quot;Helvetica Neue&amp;quot;, Helvetica, &amp;quot;Lucida Grande&amp;quot;, Roboto, Ubuntu, Tahoma, &amp;quot;Microsoft Sans Serif&amp;quot;, Arial, sans-serif; font-size: 15px; letter-spacing: 0.2px; text-align: start; white-space-collapse: preserve; background-color: rgb(255, 255, 255);&quot;&gt;Quản lý quá trình kiểm tra y tế định kỳ tại trường học&lt;/span&gt;" style="text;html=1;align=center;verticalAlign=middle;whiteSpace=wrap;rounded=0;" vertex="1" parent="1">
          <mxGeometry x="370" y="30" width="660" height="30" as="geometry" />
        </mxCell>
      </root>
    </mxGraphModel>
  </diagram>
</mxfile>
